<svg width="1200" height="800" xmlns="http://www.w3.org/2000/svg">
  <!-- Background -->
  <rect width="1200" height="800" fill="#1a1a1a"/>
  
  <!-- Geometric seal design -->
  <g transform="translate(600, 400)">
    <!-- Outer circle -->
    <circle cx="0" cy="0" r="280" fill="none" stroke="#8b7355" stroke-width="3"/>
    
    <!-- Inner geometric pattern -->
    <circle cx="0" cy="0" r="220" fill="none" stroke="#8b7355" stroke-width="2"/>
    <circle cx="0" cy="0" r="160" fill="none" stroke="#8b7355" stroke-width="2"/>
    
    <!-- Sacred geometry lines -->
    <line x1="-220" y1="0" x2="220" y2="0" stroke="#8b7355" stroke-width="1.5"/>
    <line x1="0" y1="-220" x2="0" y2="220" stroke="#8b7355" stroke-width="1.5"/>
    <line x1="-155" y1="-155" x2="155" y2="155" stroke="#8b7355" stroke-width="1.5"/>
    <line x1="155" y1="-155" x2="-155" y2="155" stroke="#8b7355" stroke-width="1.5"/>
    
    <!-- Central hexagon -->
    <path d="M 0,-100 L 87,-50 L 87,50 L 0,100 L -87,50 L -87,-50 Z" 
          fill="none" stroke="#8b7355" stroke-width="2"/>
    
    <!-- Small dots at intersections -->
    <circle cx="0" cy="-220" r="4" fill="#8b7355"/>
    <circle cx="0" cy="220" r="4" fill="#8b7355"/>
    <circle cx="-220" cy="0" r="4" fill="#8b7355"/>
    <circle cx="220" cy="0" r="4" fill="#8b7355"/>
    <circle cx="-155" cy="-155" r="4" fill="#8b7355"/>
    <circle cx="155" cy="-155" r="4" fill="#8b7355"/>
    <circle cx="-155" cy="155" r="4" fill="#8b7355"/>
    <circle cx="155" cy="155" r="4" fill="#8b7355"/>
    
    <!-- Central point -->
    <circle cx="0" cy="0" r="6" fill="#8b7355"/>
  </g>
  
  <!-- Placeholder text -->
  <text x="600" y="700" text-anchor="middle" font-family="Arial, sans-serif" font-size="24" fill="#8b7355" opacity="0.7">
    Tatuaggio Sigillo Geometrico - Placeholder
  </text>
  <text x="600" y="730" text-anchor="middle" font-family="Arial, sans-serif" font-size="16" fill="#8b7355" opacity="0.5">
    Mappatura Energetica con Geometria Sacra
  </text>
</svg>
