<svg width="64" height="64" viewBox="0 0 64 64" fill="none" xmlns="http://www.w3.org/2000/svg">
  <circle cx="32" cy="32" r="30" fill="#1877F2"/>
  <path d="M40 32C40 27.5817 36.4183 24 32 24C27.5817 24 24 27.5817 24 32C24 36.0125 26.8908 39.3875 30.75 40V34.75H28.5V32H30.75V29.875C30.75 27.6583 32.1583 26.375 34.15 26.375C35.1083 26.375 36.125 26.5417 36.125 26.5417V28.75H35C33.8917 28.75 33.5 29.4417 33.5 30.15V32H36L35.5583 34.75H33.25V40C37.1092 39.3875 40 36.0125 40 32Z" fill="white"/>
</svg>
