<svg xmlns="http://www.w3.org/2000/svg" xmlns:xlink="http://www.w3.org/1999/xlink" viewBox="0 0 3000 2800" width="100%" height="100%">
  <defs>
    <!-- CSS for Typography -->
    <style>
      @import url('https://fonts.googleapis.com/css2?family=Montserrat:wght@600&amp;display=swap');
      
      .text-tribal {
        font-family: 'Times New Roman', Times, Georgia, serif;
        font-size: 440px;
        font-weight: 700;
        fill: #111111;
        letter-spacing: 0.05em;
      }
      
      .text-rituals {
        font-family: 'Times New Roman', Times, Georgia, serif;
        font-size: 270px;
        font-weight: 700;
        fill: #111111;
        letter-spacing: 0.05em;
      }
      
      .text-sacred {
        font-family: 'Montserrat', Arial, sans-serif;
        font-size: 90px;
        font-weight: 600;
        fill: #151515;
        letter-spacing: 0.28em;
      }
    </style>

    <!-- ORIGINAL SOLID FISH SKELETON CODE: Shadow paths/gradients have been entirely removed -->
    <clipPath id="clip-4">
      <path clip-rule="nonzero" d="M 168 486 L 2774 486 L 2774 1386 L 168 1386 Z M 168 486 "/>
    </clipPath>
    <clipPath id="clip-5">
      <path clip-rule="evenodd" d="M 2450.171875 1033.210938 C 2435.691406 1011.980469 2439.449219 984.199219 2458.558594 971.160156 C 2477.671875 958.140625 2504.910156 964.789062 2519.378906 986.019531 C 2533.859375 1007.261719 2530.101562 1035.039062 2511 1048.070312 C 2491.878906 1061.101562 2464.648438 1054.449219 2450.171875 1033.210938 Z M 2773.078125 1229.71875 C 2725.53125 1233.589844 2709.828125 1225.53125 2672.300781 1244.261719 C 2678.941406 1278.269531 2743.851562 1279.070312 2732.238281 1293.609375 C 2605.621094 1452.039062 2038.398438 1344.171875 2170.769531 1200.140625 C 2180.589844 1182.671875 2260 1174.710938 2224.179688 1089.300781 C 2163.871094 1186.410156 2081.300781 1282.480469 1910.550781 1309.019531 C 2072.628906 1219.621094 2102.710938 1159.671875 2148.011719 1063.441406 C 2169.421875 1027.578125 2151.421875 1007.910156 2123.109375 1029.53125 C 2056.148438 1127.671875 1977.320312 1209.261719 1795.640625 1273.671875 C 1981.738281 1140.339844 2028.679688 1047.589844 2051.859375 972.421875 C 2036.03125 954.058594 2005.671875 941.269531 1979.089844 947.46875 C 1909.960938 1082.328125 1850.121094 1144.269531 1667.589844 1233.808594 C 1773.539062 1137.171875 1873.261719 1045.480469 1890.03125 917.28125 C 1857.109375 890.980469 1787.339844 891.941406 1772.761719 931.609375 C 1749.921875 993.789062 1659.980469 1150.800781 1473.609375 1206.769531 C 1622.03125 1108.648438 1658.25 1003.351562 1692.988281 906.230469 C 1658.71875 886.179688 1590.28125 876.621094 1564.949219 912 C 1519.589844 1010.46875 1472.621094 1083.648438 1300.898438 1196.179688 C 1417.839844 1057.710938 1461.640625 988.390625 1474.96875 895.148438 C 1441.78125 890.460938 1407.980469 894.988281 1382.558594 923.898438 C 1326.121094 1022.078125 1260.839844 1130.820312 1092.308594 1191.308594 C 1214.671875 1085.761719 1250.128906 1028.21875 1269.21875 937.820312 C 1242.570312 929 1159.691406 924.148438 1132.410156 977.75 C 1083.621094 1073.621094 1034.488281 1123.308594 923.582031 1188.171875 C 1000.648438 1111.179688 1048.089844 1029.851562 1055.230469 962.699219 C 878.117188 921.441406 887.214844 1135.359375 752.179688 1192.871094 C 794.292969 1128.519531 809.125 1056.179688 801.90625 1009.101562 C 603.730469 995.898438 430.34375 1194.429688 376.679688 1385.820312 C 377.660156 1216.890625 395.125 1160.179688 433.523438 1072.960938 C 335.929688 1042.078125 243.546875 983.441406 168.300781 888.140625 C 367.496094 1002.699219 597.171875 993.949219 786.207031 913.21875 C 786.683594 829.878906 734.566406 810.210938 668.765625 782.628906 C 819.777344 777.230469 883.371094 924.800781 1038.160156 859.371094 C 988.472656 770.320312 963.011719 739.960938 821.058594 651.820312 C 926.886719 681.230469 1044.96875 757.109375 1102.601562 824.550781 C 1126.019531 851.960938 1192.378906 836.960938 1231.371094 810.761719 C 1200.011719 743.101562 1129.75 653.46875 946.179688 569.480469 C 1156.480469 614.628906 1253.25 706.941406 1346.96875 791.859375 C 1368.851562 811.691406 1443.710938 792.398438 1466.648438 779.890625 C 1472.359375 683.75 1338.121094 560.058594 1218.671875 486.261719 C 1427.351562 575.410156 1495.570312 647.160156 1560.480469 754.128906 C 1586.570312 785.261719 1668.109375 786.269531 1710.429688 779.539062 C 1689.710938 669.699219 1633.660156 587.890625 1525.199219 512.671875 C 1727.761719 597.078125 1760.171875 707.300781 1803.800781 782.511719 C 1817.140625 805.5 1886.671875 807.570312 1911.929688 793.78125 C 1901.78125 699.949219 1863.300781 611.191406 1773.46875 524.058594 C 1930.351562 613.691406 1968.328125 742.480469 1996.210938 804.871094 C 2016 826.339844 2052.050781 835.109375 2079.578125 827.128906 C 2089.441406 736.921875 2037.339844 635.769531 1944.648438 551.351562 C 2125.710938 672.609375 2142.789062 775.191406 2168.738281 862.148438 C 2173.621094 878.5 2205.160156 891.589844 2215.910156 860.570312 C 2240.269531 790.230469 2227.78125 698.449219 2101.261719 576.480469 C 2271.960938 692.25 2287.050781 788.050781 2286.808594 911.550781 C 2380.789062 860.769531 2288.191406 792.261719 2318.511719 737.890625 C 2605.601562 806.339844 2729.671875 948.550781 2773.078125 1229.71875 "/>
    </clipPath>
    <linearGradient id="linear-pattern-2" gradientUnits="userSpaceOnUse" x1="-0.928315" y1="0" x2="2.124993" y2="0" gradientTransform="matrix(-0.000178985, 316.309, -128.474, -0.000440668, 1470.69, 779.89)">
      <stop offset="0" stop-color="rgb(0%, 0%, 0%)" stop-opacity="1"/>
      <stop offset="0.25" stop-color="rgb(0%, 0%, 0%)" stop-opacity="1"/>
      <stop offset="0.304688" stop-color="rgb(0.0198364%, 0.0198364%, 0.0198364%)" stop-opacity="1"/>
      <stop offset="0.359375" stop-color="rgb(3.378296%, 3.378296%, 3.378296%)" stop-opacity="1"/>
      <stop offset="0.414063" stop-color="rgb(6.718445%, 6.718445%, 6.718445%)" stop-opacity="1"/>
      <stop offset="0.46875" stop-color="rgb(10.057068%, 10.057068%, 10.057068%)" stop-opacity="1"/>
      <stop offset="0.523438" stop-color="rgb(13.397217%, 13.397217%, 13.397217%)" stop-opacity="1"/>
      <stop offset="0.578125" stop-color="rgb(16.737366%, 16.737366%, 16.737366%)" stop-opacity="1"/>
      <stop offset="0.632813" stop-color="rgb(19.999695%, 19.999695%, 19.999695%)" stop-opacity="1"/>
      <stop offset="0.75" stop-color="rgb(19.999695%, 19.999695%, 19.999695%)" stop-opacity="1"/>
      <stop offset="1" stop-color="rgb(19.999695%, 19.999695%, 19.999695%)" stop-opacity="1"/>
    </linearGradient>
  </defs>

  <!-- Clean Logo Background -->
  <rect width="100%" height="100%" fill="#ffffff" />

  <!-- The exact SVG path for the solid fish, preserved intact -->
  <g clip-path="url(#clip-4)">
    <g clip-path="url(#clip-5)">
      <path fill-rule="nonzero" fill="url(#linear-pattern-2)" d="M 2773.082031 486.261719 L 168.300781 486.25 L 168.300781 1452.039062 L 2773.078125 1452.050781 Z M 2773.082031 486.261719 "/>
    </g>
  </g>

  <!-- Smartly repositioned Typography (moved up by ~900px to fill the gap left by the removed shadow) -->
  <g text-anchor="middle" transform="translate(1471, 0)">
    <text y="1880" class="text-tribal">TRIBAL</text>
    <text y="2220" class="text-rituals">TATTOO RITUALS</text>
    <text y="2420" class="text-sacred">SACRED INK IN SACRED PLACES</text>
  </g>
</svg>