<svg width="64" height="64" viewBox="0 0 64 64" fill="none" xmlns="http://www.w3.org/2000/svg">
  <circle cx="32" cy="32" r="30" fill="#000000"/>
  <path d="M38.5 24.5C38.5 24.5 38.2 24.5 38 24.5C36.6 24.5 35.3 23.8 34.5 22.5C33.9 21.6 33.5 20.5 33.5 19.5H30V35C30 36.9 28.4 38.5 26.5 38.5C24.6 38.5 23 36.9 23 35C23 33.1 24.6 31.5 26.5 31.5C26.8 31.5 27.1 31.6 27.4 31.6V28.1C27.1 28.1 26.8 28 26.5 28C22.9 28 20 30.9 20 34.5C20 38.1 22.9 41 26.5 41C30.1 41 33 38.1 33 34.5V27.3C34.4 28.3 36.1 28.9 38 28.9V25.4C38.2 25.4 38.3 25.4 38.5 25.4V24.5Z" fill="#EE1D52"/>
  <path d="M38.5 25.4V28.9C36.6 28.9 34.9 28.3 33.5 27.3V34.5C33.5 38.1 30.6 41 27 41C25.3 41 23.7 40.3 22.5 39.2C24 40.7 26 41.5 28.2 41.5C31.8 41.5 34.7 38.6 34.7 35V27.8C36.1 28.8 37.8 29.4 39.7 29.4V25.9C39.3 25.9 38.9 25.7 38.5 25.4Z" fill="#69C9D0"/>
  <path d="M26.5 31.5C24.6 31.5 23 33.1 23 35C23 36.3 23.7 37.4 24.8 38C24.2 37.3 23.8 36.4 23.8 35.4C23.8 33.5 25.4 31.9 27.3 31.9C27.6 31.9 27.9 32 28.2 32V28.4C27.9 28.4 27.6 28.3 27.3 28.3C27.2 28.3 27 28.3 26.9 28.3V31.5C26.7 31.5 26.6 31.5 26.5 31.5Z" fill="#69C9D0"/>
</svg>
