<svg width="64" height="64" viewBox="0 0 64 64" fill="none" xmlns="http://www.w3.org/2000/svg">
  <circle cx="32" cy="32" r="30" fill="#FF0000"/>
  <path d="M42.8 26.4C42.8 26.4 42.5 24.5 41.7 23.7C40.7 22.7 39.6 22.7 39.1 22.6C35.7 22.4 32 22.4 32 22.4C32 22.4 28.3 22.4 24.9 22.6C24.4 22.7 23.3 22.7 22.3 23.7C21.5 24.5 21.2 26.4 21.2 26.4C21.2 26.4 21 28.6 21 30.8V32.8C21 35 21.2 37.2 21.2 37.2C21.2 37.2 21.5 39.1 22.3 39.9C23.3 40.9 24.6 40.9 25.1 41C27.3 41.2 32 41.2 32 41.2C32 41.2 35.7 41.2 39.1 41C39.6 40.9 40.7 40.9 41.7 39.9C42.5 39.1 42.8 37.2 42.8 37.2C42.8 37.2 43 35 43 32.8V30.8C43 28.6 42.8 26.4 42.8 26.4ZM29.5 35.2V28.4L36.5 31.8L29.5 35.2Z" fill="white"/>
</svg>
